<?xml version="1.0" encoding="UTF-8"?>
<!DOCTYPE svg PUBLIC "-//W3C//DTD SVG 1.1//EN" "http://www.w3.org/Graphics/SVG/1.1/DTD/svg11.dtd">
<svg xmlns="http://www.w3.org/2000/svg" version="1.1" width="500px" height="500px" style="shape-rendering:geometricPrecision; text-rendering:geometricPrecision; image-rendering:optimizeQuality; fill-rule:evenodd; clip-rule:evenodd" xmlns:xlink="http://www.w3.org/1999/xlink">
<g><path style="opacity:1" fill="#f9f9f9" d="M -0.5,-0.5 C 166.167,-0.5 332.833,-0.5 499.5,-0.5C 499.5,166.167 499.5,332.833 499.5,499.5C 332.833,499.5 166.167,499.5 -0.5,499.5C -0.5,332.833 -0.5,166.167 -0.5,-0.5 Z"/></g>
<g><path style="opacity:1" fill="#585858" d="M 144.5,171.5 C 130.5,171.5 116.5,171.5 102.5,171.5C 102.5,172.5 102.5,173.5 102.5,174.5C 101.566,173.432 101.232,172.099 101.5,170.5C 116.01,170.171 130.343,170.504 144.5,171.5 Z"/></g>
<g><path style="opacity:1" fill="#040404" d="M 228.5,170.5 C 244.167,170.5 259.833,170.5 275.5,170.5C 282.167,190.167 288.833,209.833 295.5,229.5C 287.804,229.831 280.138,229.497 272.5,228.5C 266.765,212.129 260.932,195.795 255,179.5C 254.5,196.163 254.333,212.83 254.5,229.5C 246.5,229.5 238.5,229.5 230.5,229.5C 230.667,212.497 230.5,195.497 230,178.5C 224.333,194.833 218.667,211.167 213,227.5C 211.847,229.497 210.347,229.83 208.5,228.5C 215.372,209.218 222.038,189.885 228.5,170.5 Z"/></g>
<g><path style="opacity:1" fill="#030303" d="M 399.5,173.5 C 393.167,173.5 386.833,173.5 380.5,173.5C 380.5,192.167 380.5,210.833 380.5,229.5C 373.5,229.5 366.5,229.5 359.5,229.5C 359.667,212.163 359.5,194.83 359,177.5C 358.487,178.527 357.987,179.527 357.5,180.5C 352.106,196.514 346.606,212.514 341,228.5C 339.612,229.554 338.112,229.72 336.5,229C 343.666,209.668 350.333,190.168 356.5,170.5C 370.833,170.5 385.167,170.5 399.5,170.5C 399.5,171.5 399.5,172.5 399.5,173.5 Z"/></g>
<g><path style="opacity:1" fill="#030303" d="M 144.5,171.5 C 151.667,190.324 158.667,209.324 165.5,228.5C 157.528,229.498 149.528,229.831 141.5,229.5C 136.368,213.438 131.035,197.438 125.5,181.5C 125.013,180.527 124.513,179.527 124,178.5C 123.5,195.497 123.333,212.497 123.5,229.5C 122.5,229.5 121.5,229.5 120.5,229.5C 120.5,211.167 120.5,192.833 120.5,174.5C 114.5,174.5 108.5,174.5 102.5,174.5C 102.5,173.5 102.5,172.5 102.5,171.5C 116.5,171.5 130.5,171.5 144.5,171.5 Z"/></g>
<g><path style="opacity:1" fill="#5f5f5f" d="M 399.5,173.5 C 393.69,174.49 387.69,174.823 381.5,174.5C 381.83,193.008 381.497,211.341 380.5,229.5C 380.5,210.833 380.5,192.167 380.5,173.5C 386.833,173.5 393.167,173.5 399.5,173.5 Z"/></g>
<g><path style="opacity:1" fill="#8e8e8e" d="M 359.5,229.5 C 358.833,213.167 358.167,196.833 357.5,180.5C 357.987,179.527 358.487,178.527 359,177.5C 359.5,194.83 359.667,212.163 359.5,229.5 Z"/></g>
<g><path style="opacity:1" fill="#656565" d="M 125.5,181.5 C 124.833,197.5 124.167,213.5 123.5,229.5C 123.333,212.497 123.5,195.497 124,178.5C 124.513,179.527 125.013,180.527 125.5,181.5 Z"/></g>
<g><path style="opacity:1" fill="#7b7b7b" d="M 193.5,242.5 C 196.625,241.521 199.958,241.187 203.5,241.5C 203.737,242.791 203.404,243.791 202.5,244.5C 200.012,242.612 197.012,241.945 193.5,242.5 Z"/></g>
<g><path style="opacity:1" fill="#7c7c7c" d="M 221.5,242.5 C 217.671,241.931 214.337,242.598 211.5,244.5C 210.596,243.791 210.263,242.791 210.5,241.5C 214.371,241.185 218.038,241.518 221.5,242.5 Z"/></g>
<g><path style="opacity:1" fill="#7e7e7e" d="M 116.5,242.5 C 114.577,246.029 113.911,250.029 114.5,254.5C 113.515,250.366 113.182,246.032 113.5,241.5C 114.791,241.263 115.791,241.596 116.5,242.5 Z"/></g>
<g><path style="opacity:1" fill="#0c0c0c" d="M 116.5,242.5 C 117.989,244.805 119.489,247.138 121,249.5C 122.511,247.138 124.011,244.805 125.5,242.5C 127.423,246.029 128.089,250.029 127.5,254.5C 125.803,252.695 124.97,250.361 125,247.5C 123.667,249.5 122.333,251.5 121,253.5C 119.667,251.5 118.333,249.5 117,247.5C 117.03,250.361 116.197,252.695 114.5,254.5C 113.911,250.029 114.577,246.029 116.5,242.5 Z"/></g>
<g><path style="opacity:1" fill="#6a6a6a" d="M 125.5,242.5 C 126.209,241.596 127.209,241.263 128.5,241.5C 128.818,246.032 128.485,250.366 127.5,254.5C 128.089,250.029 127.423,246.029 125.5,242.5 Z"/></g>
<g><path style="opacity:1" fill="#111111" d="M 137.5,250.5 C 137.187,247.753 137.52,245.086 138.5,242.5C 139.168,245.306 139.834,247.972 140.5,250.5C 141.585,252.582 143.085,252.916 145,251.5C 145.498,248.183 145.665,244.85 145.5,241.5C 146.5,241.5 147.5,241.5 148.5,241.5C 148.665,244.85 148.498,248.183 148,251.5C 145.833,254.287 142.999,255.12 139.5,254C 138.177,253.184 137.511,252.017 137.5,250.5 Z"/></g>
<g><path style="opacity:1" fill="#858585" d="M 140.5,250.5 C 139.834,247.972 139.168,245.306 138.5,242.5C 137.52,245.086 137.187,247.753 137.5,250.5C 136.523,247.713 136.19,244.713 136.5,241.5C 137.833,241.5 139.167,241.5 140.5,241.5C 140.5,244.5 140.5,247.5 140.5,250.5 Z"/></g>
<g><path style="opacity:1" fill="#515151" d="M 166.5,244.5 C 164.365,242.631 161.698,241.964 158.5,242.5C 158.5,246.5 158.5,250.5 158.5,254.5C 157.515,250.366 157.182,246.032 157.5,241.5C 160.833,241.5 164.167,241.5 167.5,241.5C 167.737,242.791 167.404,243.791 166.5,244.5 Z"/></g>
<g><path style="opacity:1" fill="#0e0e0e" d="M 166.5,244.5 C 164.5,244.5 162.5,244.5 160.5,244.5C 160.5,245.5 160.5,246.5 160.5,247.5C 168.5,248.167 168.5,248.833 160.5,249.5C 160.923,251.781 160.256,253.448 158.5,254.5C 158.5,250.5 158.5,246.5 158.5,242.5C 161.698,241.964 164.365,242.631 166.5,244.5 Z"/></g>
<g><path style="opacity:1" fill="#a5a5a5" d="M 184.5,242.5 C 181.5,242.5 178.5,242.5 175.5,242.5C 175.5,246.5 175.5,250.5 175.5,254.5C 174.515,250.366 174.182,246.032 174.5,241.5C 178.042,241.187 181.375,241.521 184.5,242.5 Z"/></g>
<g><path style="opacity:1" fill="#0f0f0f" d="M 184.5,242.5 C 183.082,244.308 181.082,244.975 178.5,244.5C 177.596,245.209 177.263,246.209 177.5,247.5C 179.5,247.5 181.5,247.5 183.5,247.5C 182.448,249.256 180.781,249.923 178.5,249.5C 177.596,250.209 177.263,251.209 177.5,252.5C 179.833,252.5 182.167,252.5 184.5,252.5C 182.012,254.388 179.012,255.055 175.5,254.5C 175.5,250.5 175.5,246.5 175.5,242.5C 178.5,242.5 181.5,242.5 184.5,242.5 Z"/></g>
<g><path style="opacity:1" fill="#121212" d="M 193.5,242.5 C 197.012,241.945 200.012,242.612 202.5,244.5C 199.918,244.025 197.918,244.692 196.5,246.5C 198.531,246.972 200.198,247.972 201.5,249.5C 199.833,249.5 198.167,249.5 196.5,249.5C 196.5,250.5 196.5,251.5 196.5,252.5C 198.924,252.192 201.257,252.526 203.5,253.5C 200.232,254.487 196.898,254.82 193.5,254.5C 193.5,250.5 193.5,246.5 193.5,242.5 Z"/></g>
<g><path style="opacity:1" fill="#141414" d="M 221.5,242.5 C 219.769,245.615 217.769,248.615 215.5,251.5C 217.5,252.167 219.5,252.833 221.5,253.5C 217.833,254.833 214.167,254.833 210.5,253.5C 212.475,250.391 214.808,247.557 217.5,245C 215.527,244.505 213.527,244.338 211.5,244.5C 214.337,242.598 217.671,241.931 221.5,242.5 Z"/></g>
<g><path style="opacity:1" fill="#171717" d="M 245.5,249.5 C 245.217,248.711 244.717,248.044 244,247.5C 243.503,249.81 243.337,252.143 243.5,254.5C 241.577,250.971 240.911,246.971 241.5,242.5C 244.775,243.614 246.942,245.947 248,249.5C 249.697,247.301 251.197,244.968 252.5,242.5C 253.325,241.614 254.325,241.281 255.5,241.5C 255.5,245.833 255.5,250.167 255.5,254.5C 254.5,254.5 253.5,254.5 252.5,254.5C 252.662,252.473 252.495,250.473 252,248.5C 250.108,253.102 247.941,253.436 245.5,249.5 Z"/></g>
<g><path style="opacity:1" fill="#131313" d="M 272.5,250.5 C 273.166,247.972 273.832,245.306 274.5,242.5C 275.48,245.086 275.813,247.753 275.5,250.5C 275.489,252.017 274.823,253.184 273.5,254C 270.001,255.12 267.167,254.287 265,251.5C 264.502,248.183 264.335,244.85 264.5,241.5C 265.5,241.5 266.5,241.5 267.5,241.5C 267.335,244.85 267.502,248.183 268,251.5C 269.915,252.916 271.415,252.582 272.5,250.5 Z"/></g>
<g><path style="opacity:1" fill="#8b8b8b" d="M 275.5,250.5 C 275.813,247.753 275.48,245.086 274.5,242.5C 273.832,245.306 273.166,247.972 272.5,250.5C 272.5,247.5 272.5,244.5 272.5,241.5C 273.833,241.5 275.167,241.5 276.5,241.5C 276.81,244.713 276.477,247.713 275.5,250.5 Z"/></g>
<g><path style="opacity:1" fill="#1b1b1b" d="M 284.5,242.5 C 286.833,242.5 289.167,242.5 291.5,242.5C 291.5,245.5 291.5,248.5 291.5,251.5C 290.852,253.586 289.352,254.586 287,254.5C 284.263,254.624 283.429,253.624 284.5,251.5C 285.736,252.246 287.07,252.579 288.5,252.5C 288.5,249.833 288.5,247.167 288.5,244.5C 286.517,244.843 285.183,244.176 284.5,242.5 Z"/></g>
<g><path style="opacity:1" fill="#9f9f9f" d="M 284.5,242.5 C 286.948,241.527 289.615,241.194 292.5,241.5C 292.813,245.042 292.479,248.375 291.5,251.5C 291.5,248.5 291.5,245.5 291.5,242.5C 289.167,242.5 286.833,242.5 284.5,242.5 Z"/></g>
<g><path style="opacity:1" fill="#1a1a1a" d="M 304.5,241.5 C 305.822,241.33 306.989,241.663 308,242.5C 309.798,246.422 311.298,250.422 312.5,254.5C 311.5,254.5 310.5,254.5 309.5,254.5C 309.5,253.5 309.5,252.5 309.5,251.5C 305.995,250.876 303.162,251.876 301,254.5C 300.5,254.167 300,253.833 299.5,253.5C 301.179,249.479 302.846,245.479 304.5,241.5 Z"/></g>
<g><path style="opacity:1" fill="#212121" d="M 322.5,241.5 C 330.895,242.171 331.229,243.504 323.5,245.5C 325.566,246.906 327.732,248.24 330,249.5C 330.711,251.367 330.211,252.867 328.5,254C 325.294,254.89 322.294,254.557 319.5,253C 322.143,252.616 324.809,251.95 327.5,251C 325.212,250.054 323.045,248.887 321,247.5C 320.252,245.16 320.752,243.16 322.5,241.5 Z"/></g>
<g><path style="opacity:1" fill="#1d1d1d" d="M 340.5,241.5 C 342.977,241.051 344.977,241.717 346.5,243.5C 338.656,244.834 338.656,246.334 346.5,248C 348.032,250.33 347.698,252.33 345.5,254C 342.621,254.874 339.955,254.54 337.5,253C 338,252.5 338.5,252 339,251.5C 340.699,252.406 342.533,252.739 344.5,252.5C 344.5,251.5 344.5,250.5 344.5,249.5C 337.168,249.465 335.834,246.798 340.5,241.5 Z"/></g>
<g><path style="opacity:1" fill="#929292" d="M 358.5,254.5 C 357.833,238.5 357.167,238.5 356.5,254.5C 355.515,250.366 355.182,246.032 355.5,241.5C 356.833,241.5 358.167,241.5 359.5,241.5C 359.818,246.032 359.485,250.366 358.5,254.5 Z"/></g>
<g><path style="opacity:1" fill="#000000" d="M 358.5,254.5 C 357.833,254.5 357.167,254.5 356.5,254.5C 357.167,238.5 357.833,238.5 358.5,254.5 Z"/></g>
<g><path style="opacity:1" fill="#a8a8a8" d="M 375.5,242.5 C 373.167,242.5 370.833,242.5 368.5,242.5C 368.5,246.5 368.5,250.5 368.5,254.5C 367.515,250.366 367.182,246.032 367.5,241.5C 370.385,241.194 373.052,241.527 375.5,242.5 Z"/></g>
<g><path style="opacity:1" fill="#181818" d="M 375.5,242.5 C 377.89,242.685 378.89,244.018 378.5,246.5C 376.269,248.97 376.269,251.303 378.5,253.5C 378,253.833 377.5,254.167 377,254.5C 375.756,252.424 373.923,251.424 371.5,251.5C 371.5,252.5 371.5,253.5 371.5,254.5C 370.5,254.5 369.5,254.5 368.5,254.5C 368.5,250.5 368.5,246.5 368.5,242.5C 370.833,242.5 373.167,242.5 375.5,242.5 Z"/></g>
<g><path style="opacity:1" fill="#ebebeb" d="M 371.5,244.5 C 373.665,244.116 375.332,244.783 376.5,246.5C 375.332,248.217 373.665,248.884 371.5,248.5C 371.5,247.167 371.5,245.833 371.5,244.5 Z"/></g>
<g><path style="opacity:1" fill="#767676" d="M 178.5,244.5 C 179.802,246.028 181.469,247.028 183.5,247.5C 181.5,247.5 179.5,247.5 177.5,247.5C 177.263,246.209 177.596,245.209 178.5,244.5 Z"/></g>
<g><path style="opacity:1" fill="#818181" d="M 196.5,246.5 C 198.5,246.5 200.5,246.5 202.5,246.5C 202.737,247.791 202.404,248.791 201.5,249.5C 200.198,247.972 198.531,246.972 196.5,246.5 Z"/></g>
<g><path style="opacity:1" fill="#e4e4e4" d="M 305.5,245.5 C 307.104,246.287 307.771,247.62 307.5,249.5C 306.325,249.719 305.325,249.386 304.5,248.5C 305.127,247.583 305.461,246.583 305.5,245.5 Z"/></g>
<g><path style="opacity:1" fill="#858585" d="M 245.5,249.5 C 244.833,251.167 244.167,252.833 243.5,254.5C 243.337,252.143 243.503,249.81 244,247.5C 244.717,248.044 245.217,248.711 245.5,249.5 Z"/></g>
<g><path style="opacity:1" fill="#949494" d="M 178.5,249.5 C 180.156,251.06 182.156,252.06 184.5,252.5C 182.167,252.5 179.833,252.5 177.5,252.5C 177.263,251.209 177.596,250.209 178.5,249.5 Z"/></g>
<g><path style="opacity:1" fill="#8c8c8c" d="M 179.5,269.5 C 171.648,269.175 163.982,269.508 156.5,270.5C 155.957,270.44 155.624,270.107 155.5,269.5C 163.657,268.18 171.657,268.18 179.5,269.5 Z"/></g>
<g><path style="opacity:1" fill="#070707" d="M 120.5,269.5 C 121.5,269.5 122.5,269.5 123.5,269.5C 123.17,287.341 123.503,305.008 124.5,322.5C 130.5,322.5 136.5,322.5 142.5,322.5C 142.5,323.833 142.5,325.167 142.5,326.5C 129.167,326.5 115.833,326.5 102.5,326.5C 102.5,325.5 102.5,324.5 102.5,323.5C 108.69,323.823 114.69,323.49 120.5,322.5C 120.5,304.833 120.5,287.167 120.5,269.5 Z"/></g>
<g><path style="opacity:1" fill="#686868" d="M 120.5,269.5 C 121.568,268.566 122.901,268.232 124.5,268.5C 124.5,286.5 124.5,304.5 124.5,322.5C 123.503,305.008 123.17,287.341 123.5,269.5C 122.5,269.5 121.5,269.5 120.5,269.5 Z"/></g>
<g><path style="opacity:1" fill="#040404" d="M 179.5,269.5 C 182.267,275.615 184.767,281.948 187,288.5C 189.869,282.753 192.203,276.753 194,270.5C 195.388,269.446 196.888,269.28 198.5,270C 191.808,288.408 185.308,306.908 179,325.5C 177.989,326.337 176.822,326.67 175.5,326.5C 169.565,307.696 163.232,289.03 156.5,270.5C 163.982,269.508 171.648,269.175 179.5,269.5 Z"/></g>
<g><path style="opacity:1" fill="#030303" d="M 212.5,326.5 C 212.5,325.5 212.5,324.5 212.5,323.5C 218.69,323.823 224.69,323.49 230.5,322.5C 230.5,304.833 230.5,287.167 230.5,269.5C 238.5,269.5 246.5,269.5 254.5,269.5C 254.5,286.167 254.5,302.833 254.5,319.5C 260.5,319.5 266.5,319.5 272.5,319.5C 272.326,321.861 271.993,324.194 271.5,326.5C 251.833,326.5 232.167,326.5 212.5,326.5 Z"/></g>
<g><path style="opacity:1" fill="#040404" d="M 286.5,270.5 C 294.343,269.18 302.343,269.18 310.5,270.5C 312.778,276.172 314.944,281.839 317,287.5C 318.533,281.735 320.366,276.068 322.5,270.5C 323.833,269.167 325.167,269.167 326.5,270.5C 320.094,288.053 314.094,305.72 308.5,323.5C 307.178,323.67 306.011,323.337 305,322.5C 299.098,304.955 292.932,287.621 286.5,270.5 Z"/></g>
<g><path style="opacity:1" fill="#828282" d="M 359.5,269.5 C 359.5,286.5 359.5,303.5 359.5,320.5C 353.5,320.5 347.5,320.5 341.5,320.5C 341.5,321.5 341.5,322.5 341.5,323.5C 340.566,322.432 340.232,321.099 340.5,319.5C 346.5,319.5 352.5,319.5 358.5,319.5C 358.17,302.658 358.503,285.992 359.5,269.5 Z"/></g>
<g><path style="opacity:1" fill="#020202" d="M 359.5,269.5 C 366.5,269.5 373.5,269.5 380.5,269.5C 380.17,286.342 380.503,303.008 381.5,319.5C 387.5,319.5 393.5,319.5 399.5,319.5C 399.5,320.833 399.5,322.167 399.5,323.5C 380.167,323.5 360.833,323.5 341.5,323.5C 341.5,322.5 341.5,321.5 341.5,320.5C 347.5,320.5 353.5,320.5 359.5,320.5C 359.5,303.5 359.5,286.5 359.5,269.5 Z"/></g>
<g><path style="opacity:1" fill="#606060" d="M 359.5,269.5 C 366.648,268.508 373.981,268.175 381.5,268.5C 381.5,285.5 381.5,302.5 381.5,319.5C 380.503,303.008 380.17,286.342 380.5,269.5C 373.5,269.5 366.5,269.5 359.5,269.5 Z"/></g>
<g><path style="opacity:1" fill="#525252" d="M 120.5,322.5 C 114.69,323.49 108.69,323.823 102.5,323.5C 102.5,324.5 102.5,325.5 102.5,326.5C 101.566,325.432 101.232,324.099 101.5,322.5C 107.833,322.5 114.167,322.5 120.5,322.5 Z"/></g>
<g><path style="opacity:1" fill="#545454" d="M 230.5,322.5 C 224.69,323.49 218.69,323.823 212.5,323.5C 212.5,324.5 212.5,325.5 212.5,326.5C 211.566,325.432 211.232,324.099 211.5,322.5C 217.833,322.5 224.167,322.5 230.5,322.5 Z"/></g>
<g><path style="opacity:1" fill="#f6f6f6" d="M 221.5,346.5 C 223.518,351.815 221.852,353.482 216.5,351.5C 216.5,348.167 218.167,346.5 221.5,346.5 Z"/></g>
<g><path style="opacity:1" fill="#333333" d="M 233.5,345.5 C 234.468,347.607 234.802,349.941 234.5,352.5C 239.5,353.003 239.167,353.336 233.5,353.5C 233.5,350.833 233.5,348.167 233.5,345.5 Z"/></g>
<g><path style="opacity:1" fill="#757575" d="M 253.5,346.5 C 252.167,346.5 250.833,346.5 249.5,346.5C 249.5,348.5 249.5,350.5 249.5,352.5C 250.833,352.5 252.167,352.5 253.5,352.5C 251.735,353.461 249.735,353.795 247.5,353.5C 247.5,350.833 247.5,348.167 247.5,345.5C 249.735,345.205 251.735,345.539 253.5,346.5 Z"/></g>
<g><path style="opacity:1" fill="#f4f4f4" d="M 253.5,346.5 C 254.641,348.549 254.641,350.549 253.5,352.5C 252.167,352.5 250.833,352.5 249.5,352.5C 249.5,350.5 249.5,348.5 249.5,346.5C 250.833,346.5 252.167,346.5 253.5,346.5 Z"/></g>
<g><path style="opacity:1" fill="#666666" d="M 280.5,350.5 C 282.117,349.411 282.95,347.744 283,345.5C 283.818,348.227 283.652,350.894 282.5,353.5C 281.081,352.995 280.415,351.995 280.5,350.5 Z"/></g>
<g><path style="opacity:1" fill="#666666" d="M 221.5,346.5 C 218.167,346.5 216.5,348.167 216.5,351.5C 214.806,348.361 215.806,346.361 219.5,345.5C 220.416,345.543 221.083,345.876 221.5,346.5 Z"/></g>
<g><path style="opacity:1" fill="#3a3a3a" d="M 280.5,350.5 C 279.542,350.047 278.708,349.381 278,348.5C 277.667,350.167 277.333,351.833 277,353.5C 276.333,350.833 276.333,348.167 277,345.5C 278.802,346.789 279.969,348.456 280.5,350.5 Z"/></g>
<g><path style="opacity:1" fill="#5d5d5d" d="M 253.5,346.5 C 254.947,347.134 255.613,348.301 255.5,350C 255.316,351.376 254.649,352.209 253.5,352.5C 254.641,350.549 254.641,348.549 253.5,346.5 Z"/></g>
<g><path style="opacity:1" fill="#8a8a8a" d="M 199.5,345.5 C 200.404,346.209 200.737,347.209 200.5,348.5C 201.833,348.5 203.167,348.5 204.5,348.5C 204.281,347.325 204.614,346.325 205.5,345.5C 206.833,348.167 206.833,350.833 205.5,353.5C 204.614,352.675 204.281,351.675 204.5,350.5C 203.167,350.5 201.833,350.5 200.5,350.5C 200.649,351.552 200.483,352.552 200,353.5C 199.503,350.854 199.336,348.187 199.5,345.5 Z"/></g>
<g><path style="opacity:1" fill="#737373" d="M 294.5,345.5 C 296.288,345.215 297.955,345.548 299.5,346.5C 298.418,346.749 297.085,346.915 295.5,347C 292.959,350.351 293.959,352.185 298.5,352.5C 298.281,351.325 298.614,350.325 299.5,349.5C 300.731,350.651 300.731,351.817 299.5,353C 292.745,353.756 291.078,351.256 294.5,345.5 Z"/></g>
<g><path style="opacity:1" fill="#6e6e6e" d="M 221.5,346.5 C 224.624,347.766 225.124,349.766 223,352.5C 220.448,354.02 218.282,353.687 216.5,351.5C 221.852,353.482 223.518,351.815 221.5,346.5 Z"/></g>
</svg>
